<svg width="67" height="67" viewBox="0 0 67 67" fill="none" xmlns="http://www.w3.org/2000/svg">
<path d="M64.1067 58.4122C64.6661 58.4122 65.1503 58.6166 65.5591 59.0254C65.9679 59.4342 66.1724 59.9184 66.1724 60.4778V64.6092C66.1724 65.1686 65.9679 65.6528 65.5591 66.0616C65.1503 66.4704 64.6661 66.6749 64.1067 66.6749H2.13647C1.57702 66.6749 1.09288 66.4704 0.684048 66.0616C0.275216 65.6528 0.0708008 65.1686 0.0708008 64.6092V60.4778C0.0708008 59.9184 0.275216 59.4342 0.684048 59.0254C1.09288 58.6166 1.57702 58.4122 2.13647 58.4122H4.20215V25.3614H2.13647C1.57702 25.3614 1.09288 25.157 0.684048 24.7481C0.275216 24.3393 0.0708008 23.8552 0.0708008 23.2957V19.1644C0.0708008 18.6049 0.275216 18.1208 0.684048 17.7119C1.09288 17.3031 1.57702 17.0987 2.13647 17.0987H8.3335L31.7014 0.896053C32.6482 0.42267 33.595 0.42267 34.5417 0.896053L57.9097 17.0987H64.1067C64.6661 17.0987 65.1503 17.3031 65.5591 17.7119C65.9679 18.1208 66.1724 18.6049 66.1724 19.1644V23.2957C66.1724 23.8552 65.9679 24.3393 65.5591 24.7481C65.1503 25.157 64.6661 25.3614 64.1067 25.3614H62.041V58.4122H64.1067ZM16.5962 25.3614H12.4648V58.4122H16.5962V25.3614ZM28.9902 25.3614H24.8589V58.4122H28.9902V25.3614ZM37.2529 58.4122H41.3843V25.3614H37.2529V58.4122ZM53.7783 25.3614H49.647V58.4122H53.7783V25.3614Z" fill="#504E4E"/>
</svg>
