<svg width="78" height="79" viewBox="0 0 78 79" fill="none" xmlns="http://www.w3.org/2000/svg">
<path d="M71.3213 34.9922L63.375 15.4922H68.25V10.6172H43.875V5.74219H39V10.6172H14.625V15.4922H19.5L11.6025 34.9922H9.75V39.8672H10.4813C11.2418 42.2949 12.7871 44.4009 14.8687 45.8634C16.9243 47.354 19.3984 48.1566 21.9375 48.1566C24.4766 48.1566 26.9507 47.354 29.0062 45.8634C31.0896 44.392 32.6449 42.2899 33.4425 39.8672H34.125V34.9922H31.9313L23.79 15.4922H39V54.4922H29.25L27.3488 55.3697L17.5987 67.6059L19.5 71.5547H63.375L65.2763 67.6059L55.5263 55.3697L53.625 54.4922H43.875V15.4922H59.1338L50.9925 34.9922H48.75V39.8672H49.4812C50.2786 42.2825 51.8173 44.3848 53.8785 45.8749C55.9397 47.3651 58.4184 48.1673 60.9619 48.1673C63.5053 48.1673 65.984 47.3651 68.0452 45.8749C70.1065 44.3848 71.6452 42.2825 72.4425 39.8672H73.125V34.9922H71.3213ZM25.4475 42.3534C24.3724 42.9484 23.1662 43.2667 21.9375 43.2797C20.7233 43.2733 19.5313 42.9543 18.4762 42.3534C17.4004 41.7637 16.494 40.9076 15.8438 39.8672H28.0312C27.3865 40.895 26.4993 41.7487 25.4475 42.3534ZM26.6662 34.9922H16.9163L21.7912 23.2922L26.6662 34.9922ZM52.455 59.3672L58.5 66.6797H24.375L30.42 59.3672H52.455ZM61.1325 23.3897L66.0075 35.0897H56.2575L61.1325 23.3897ZM64.4475 42.4509C63.3816 43.0686 62.1694 43.3885 60.9375 43.3772C59.7203 43.3945 58.5221 43.0739 57.4762 42.4509C56.3988 41.8204 55.4943 40.9327 54.8438 39.8672H67.0312C66.4269 40.9519 65.5322 41.8466 64.4475 42.4509Z" fill="#504E4E"/>
</svg>
