<svg width="59" height="81" viewBox="0 0 59 81" fill="none" xmlns="http://www.w3.org/2000/svg">
<path fill-rule="evenodd" clip-rule="evenodd" d="M40.4124 68.1837H33.2722V61.8736C31.911 61.0877 30.8472 59.8746 30.2457 58.4224C29.6442 56.9703 29.5386 55.3602 29.9454 53.842C30.3523 52.3237 31.2487 50.9821 32.4957 50.0253C33.7427 49.0684 35.2705 48.5498 36.8423 48.5498C38.4141 48.5498 39.942 49.0684 41.189 50.0253C42.436 50.9821 43.3324 52.3237 43.7392 53.842C44.146 55.3602 44.0405 56.9703 43.439 58.4224C42.8375 59.8746 41.7737 61.0877 40.4124 61.8736V68.1837ZM36.8423 59.2585C37.7892 59.2585 38.6973 58.8823 39.3668 58.2128C40.0363 57.5433 40.4124 56.6352 40.4124 55.6884C40.4124 54.7415 40.0363 53.8335 39.3668 53.164C38.6973 52.4944 37.7892 52.1183 36.8423 52.1183C35.8955 52.1183 34.9874 52.4944 34.3179 53.164C33.6484 53.8335 33.2722 54.7415 33.2722 55.6884C33.2722 56.6352 33.6484 57.5433 34.3179 58.2128C34.9874 58.8823 35.8955 59.2585 36.8423 59.2585V59.2585Z" fill="#F7F7F7"/>
<path d="M18.9912 16.413C18.9912 15.9396 19.1793 15.4855 19.514 15.1508C19.8488 14.816 20.3028 14.6279 20.7763 14.6279H38.6267C39.1002 14.6279 39.5542 14.816 39.8889 15.1508C40.2237 15.4855 40.4118 15.9396 40.4118 16.413C40.4118 16.8864 40.2237 17.3404 39.8889 17.6752C39.5542 18.01 39.1002 18.198 38.6267 18.198H20.7763C20.3028 18.198 19.8488 18.01 19.514 17.6752C19.1793 17.3404 18.9912 16.8864 18.9912 16.413Z" fill="#F7F7F7"/>
<path d="M13.6351 25.3379C13.1617 25.3379 12.7077 25.526 12.3729 25.8607C12.0382 26.1955 11.8501 26.6495 11.8501 27.1229C11.8501 27.5964 12.0382 28.0504 12.3729 28.3852C12.7077 28.7199 13.1617 28.908 13.6351 28.908H45.766C46.2394 28.908 46.6934 28.7199 47.0282 28.3852C47.363 28.0504 47.551 27.5964 47.551 27.1229C47.551 26.6495 47.363 26.1955 47.0282 25.8607C46.6934 25.526 46.2394 25.3379 45.766 25.3379H13.6351Z" fill="#F7F7F7"/>
<path d="M11.8501 34.2684C11.8501 33.795 12.0382 33.341 12.3729 33.0062C12.7077 32.6715 13.1617 32.4834 13.6351 32.4834H45.766C46.2394 32.4834 46.6934 32.6715 47.0282 33.0062C47.363 33.341 47.551 33.795 47.551 34.2684C47.551 34.7419 47.363 35.1959 47.0282 35.5307C46.6934 35.8654 46.2394 36.0535 45.766 36.0535H13.6351C13.1617 36.0535 12.7077 35.8654 12.3729 35.5307C12.0382 35.1959 11.8501 34.7419 11.8501 34.2684Z" fill="#F7F7F7"/>
<path d="M13.6351 39.6211C13.1617 39.6211 12.7077 39.8092 12.3729 40.1439C12.0382 40.4787 11.8501 40.9327 11.8501 41.4061C11.8501 41.8796 12.0382 42.3336 12.3729 42.6684C12.7077 43.0031 13.1617 43.1912 13.6351 43.1912H45.766C46.2394 43.1912 46.6934 43.0031 47.0282 42.6684C47.363 42.3336 47.551 41.8796 47.551 41.4061C47.551 40.9327 47.363 40.4787 47.0282 40.1439C46.6934 39.8092 46.2394 39.6211 45.766 39.6211H13.6351Z" fill="#F7F7F7"/>
<path d="M33.9497 77.0499V78.3993L34.829 77.3757L36.9442 74.9134L38.72 77.3448L39.6237 78.5822V77.0499V69.0322V68.5322H39.1237H34.4497H33.9497V69.0322V70.9825V77.0499Z" stroke="#F7F7F7"/>
<rect x="2.87402" y="2.36621" width="54.0184" height="67.8166" rx="8" stroke="#F7F7F7" stroke-width="4"/>
</svg>
